<svg xmlns="http://www.w3.org/2000/svg" width="124" height="32" viewBox="0 0 124 32" role="img" aria-label="DeckTalk">
  <g transform="translate(0 5)"><g stroke-width="2.25" stroke-linecap="round">
    <line x1="4" y1="12" x2="4" y2="20" stroke="#d4d4d8"/>
    <line x1="9.5" y1="8" x2="9.5" y2="20" stroke="#2c1fea"/>
    <line x1="15" y1="12" x2="15" y2="20" stroke="#d4d4d8"/>
    <line x1="20.5" y1="12" x2="20.5" y2="20" stroke="#d4d4d8"/>
  </g><circle cx="9.5" cy="3.75" r="2.25" fill="#2c1fea"/></g>
  <path transform="translate(34 24)" fill="#0a0a0a" d="M6.59 0H2.53V-2.51H6.45Q8.11 -2.51 9.24 -3.12Q10.36 -3.73 10.92 -4.95Q11.48 -6.18 11.48 -8.02Q11.48 -9.85 10.92 -11.07Q10.36 -12.28 9.26 -12.89Q8.15 -13.5 6.52 -13.5H2.45V-16.01H6.69Q9.08 -16.01 10.79 -15.05Q12.51 -14.09 13.43 -12.3Q14.35 -10.51 14.35 -8.02Q14.35 -5.52 13.42 -3.72Q12.5 -1.92 10.76 -0.96Q9.03 0 6.59 0ZM4.06 -16.01V0H1.16V-16.01ZM21.03 0.24Q19.22 0.24 17.91 -0.52Q16.59 -1.28 15.89 -2.67Q15.19 -4.05 15.19 -5.93Q15.19 -7.79 15.89 -9.19Q16.58 -10.59 17.86 -11.37Q19.13 -12.16 20.84 -12.16Q21.95 -12.16 22.94 -11.8Q23.94 -11.45 24.71 -10.71Q25.47 -9.97 25.91 -8.82Q26.35 -7.68 26.35 -6.1V-5.22H16.51V-7.12H24.94L23.63 -6.57Q23.63 -7.58 23.32 -8.34Q23 -9.1 22.39 -9.53Q21.77 -9.96 20.86 -9.96Q19.95 -9.96 19.31 -9.53Q18.66 -9.09 18.33 -8.37Q17.99 -7.65 17.99 -6.76V-5.44Q17.99 -4.34 18.37 -3.56Q18.76 -2.78 19.45 -2.37Q20.15 -1.96 21.06 -1.96Q21.67 -1.96 22.17 -2.14Q22.67 -2.31 23.03 -2.66Q23.39 -3.01 23.58 -3.52L26.22 -3.21Q25.97 -2.17 25.27 -1.39Q24.58 -0.62 23.5 -0.19Q22.42 0.24 21.03 0.24ZM32.66 0.24Q30.88 0.24 29.59 -0.55Q28.3 -1.34 27.61 -2.74Q26.92 -4.13 26.92 -5.95Q26.92 -7.79 27.62 -9.19Q28.32 -10.58 29.61 -11.37Q30.9 -12.16 32.65 -12.16Q34.12 -12.16 35.24 -11.62Q36.37 -11.09 37.04 -10.12Q37.72 -9.15 37.81 -7.84H35.1Q35 -8.42 34.69 -8.89Q34.38 -9.35 33.88 -9.61Q33.37 -9.88 32.69 -9.88Q31.82 -9.88 31.17 -9.41Q30.52 -8.95 30.15 -8.08Q29.79 -7.21 29.79 -5.99Q29.79 -4.77 30.15 -3.88Q30.5 -2.99 31.16 -2.52Q31.81 -2.04 32.69 -2.04Q33.62 -2.04 34.27 -2.59Q34.93 -3.14 35.1 -4.1H37.81Q37.71 -2.83 37.06 -1.85Q36.41 -0.87 35.29 -0.31Q34.18 0.24 32.66 0.24ZM41.48 -3.76 41.47 -7.18H41.93L46.23 -12.01H49.54L44.24 -6.09H43.64ZM38.9 0V-16.01H41.72V0ZM46.43 0 42.52 -5.46 44.43 -7.46 49.82 0ZM49.56 -13.57V-16.01H62.33V-13.57H57.39V0H54.52V-13.57ZM66.85 0.24Q65.71 0.24 64.79 -0.17Q63.88 -0.58 63.35 -1.39Q62.82 -2.19 62.82 -3.37Q62.82 -4.39 63.2 -5.05Q63.58 -5.71 64.23 -6.11Q64.88 -6.51 65.69 -6.72Q66.5 -6.93 67.38 -7.02Q68.44 -7.13 69.09 -7.22Q69.75 -7.31 70.05 -7.5Q70.35 -7.69 70.35 -8.1V-8.15Q70.35 -9.03 69.83 -9.51Q69.31 -9.99 68.32 -9.99Q67.28 -9.99 66.68 -9.54Q66.07 -9.09 65.86 -8.47L63.22 -8.85Q63.53 -9.94 64.25 -10.68Q64.97 -11.42 66.01 -11.79Q67.05 -12.16 68.31 -12.16Q69.16 -12.16 70.02 -11.96Q70.88 -11.76 71.6 -11.29Q72.32 -10.82 72.75 -10.02Q73.18 -9.22 73.18 -8.04V0H70.46V-1.66H70.37Q70.12 -1.16 69.65 -0.72Q69.18 -0.29 68.49 -0.02Q67.79 0.24 66.85 0.24ZM67.57 -1.84Q68.43 -1.84 69.06 -2.18Q69.68 -2.52 70.02 -3.08Q70.36 -3.64 70.36 -4.31V-5.72Q70.22 -5.61 69.91 -5.52Q69.6 -5.42 69.2 -5.35Q68.81 -5.28 68.43 -5.22Q68.05 -5.17 67.77 -5.13Q67.13 -5.05 66.63 -4.85Q66.13 -4.65 65.84 -4.31Q65.56 -3.96 65.56 -3.41Q65.56 -2.64 66.12 -2.24Q66.69 -1.84 67.57 -1.84ZM77.66 -16.01V0H74.83V-16.01ZM81.88 -3.76 81.87 -7.18H82.33L86.63 -12.01H89.94L84.64 -6.09H84.05ZM79.3 0V-16.01H82.13V0ZM86.83 0 82.92 -5.46 84.83 -7.46 90.22 0Z"/>
</svg>
